# File created by Blade
# Date/Time:  Wed Jan 28 15:39:58 2015
#---------------------------------------------------------
:version 1.10
:name HOM
:units
  mass 1.0
  length 1.000000
  angle deg
:documentation
     Acclaim Skeleton File
:root
   axis xyz
   order TX TY TZ RX RY RZ
   position 0.000000 0.000000 0.000000
   orientation 0 0 0
:bonedata
   begin
      id 1
      name Spine_dum
      direction 0.000000 1.000000 0.000000
      length 6.864287
      axis 0.0 0.0 0.0 xyz
   end
   begin
      id 2
      name LeftUpLeg_dum
      direction 1.000000 0.000000 0.000000
      length 4.117376
      axis 0.0 0.0 0.0 xyz
   end
   begin
      id 3
      name RightUpLeg_dum
      direction -1.000000 0.000000 0.000000
      length 4.117376
      axis 0.0 0.0 0.0 xyz
   end
   begin
      id 4
      name Spine
      direction 0.000000 1.000000 0.000000
      length 0.000000
      axis 0.0 0.0 0.0 xyz
      dof rx ry rz
   end
   begin
      id 5
      name Spine_dum1
      direction 0.000000 1.000000 0.000000
      length 15.393827
      axis 0.0 0.0 0.0 xyz
   end
   begin
      id 6
      name Spine_dum2
      direction 0.000000 1.000000 0.000000
      length 9.314826
      axis 0.0 0.0 0.0 xyz
   end
   begin
      id 7
      name Spine_dum3
      direction 0.000000 1.000000 0.000000
      length 9.314826
      axis 0.0 0.0 0.0 xyz
   end
   begin
      id 8
      name Head
      direction 0.000000 1.000000 0.000000
      length 4.527550
      axis 0.0 0.0 0.0 xyz
      dof rx ry rz
   end
   begin
      id 9
      name LeftShoulder
      direction 1.000000 0.000000 0.000000
      length 8.275398
      axis 0.0 0.0 -90.0 xyz
      dof rx ry rz
   end
   begin
      id 10
      name LeftArm
      direction 1.000000 0.000000 0.000000
      length 12.002200
      axis 0.0 0.0 -90.0 xyz
      dof rx ry rz
   end
   begin
      id 11
      name LeftForeArm
      direction 1.000000 0.000000 0.000000
      length 10.144633
      axis 0.0 0.0 -90.0 xyz
      dof ry rz rx
   end
   begin
      id 12
      name LeftHand
      direction 0.000000 0.000000 0.000000
      length 0.000000
      axis 0.0 0.0 -90.0 xyz
      dof rx ry rz
   end
   begin
      id 13
      name LeftHand_dum1
      direction 0.000000 0.000000 0.000000
      length 0.000000
      axis 0.0 0.0 -90.0 xyz
   end
   begin
      id 14
      name LeftHand_dum2
      direction 1.000000 0.000000 0.000000
      length 3.937000
      axis 0.0 0.0 -90.0 xyz
   end
   begin
      id 15
      name LeftHandThumb1
      direction 0.000000 0.000000 1.000000
      length 3.937000
      axis 0.0 0.0 -90.0 xyz
      dof rx rz ry
   end
   begin
      id 16
      name RightShoulder
      direction -1.000000 0.000000 0.000000
      length 8.275398
      axis 0.0 0.0 90.0 xyz
      dof rx ry rz
   end
   begin
      id 17
      name RightArm
      direction -1.000000 0.000000 0.000000
      length 12.002200
      axis 0.0 0.0 90.0 xyz
      dof rx ry rz
   end
   begin
      id 18
      name RightForeArm
      direction -1.000000 0.000000 0.000000
      length 10.144633
      axis 0.0 0.0 90.0 xyz
      dof ry rz rx
   end
   begin
      id 19
      name RightHand
      direction 0.000000 0.000000 0.000000
      length 0.000000
      axis 0.0 0.0 90.0 xyz
      dof rx ry rz
   end
   begin
      id 20
      name RightHand_dum1
      direction 0.000000 0.000000 0.000000
      length 0.000000
      axis 0.0 0.0 90.0 xyz
   end
   begin
      id 21
      name RightHand_dum2
      direction -1.000000 0.000000 0.000000
      length 3.937000
      axis 0.0 0.0 90.0 xyz
   end
   begin
      id 22
      name RightHandThumb1
      direction 0.000000 0.000000 1.000000
      length 3.937000
      axis 0.0 0.0 90.0 xyz
      dof rx rz ry
   end
   begin
      id 23
      name LeftUpLeg
      direction 0.000000 -1.000000 0.000000
      length 19.394322
      axis 0.0 0.0 0.0 xyz
      dof rx ry rz
   end
   begin
      id 24
      name LeftLeg
      direction 0.000000 -1.000000 0.000000
      length 17.609563
      axis 0.0 0.0 0.0 xyz
      dof rx ry rz
   end
   begin
      id 25
      name LeftFoot
      direction 0.000000 -0.258819 0.965926
      length 6.085393
      axis 15.0 0.0 0.0 xyz
      dof rx ry rz
   end
   begin
      id 26
      name LeftToeBase
      direction 0.000000 0.000000 1.000000
      length 2.952750
      axis 0.0 0.0 0.0 xyz
      dof rx ry rz
   end
   begin
      id 27
      name RightUpLeg
      direction 0.000000 -1.000000 0.000000
      length 19.394322
      axis 0.0 0.0 0.0 xyz
      dof rx ry rz
   end
   begin
      id 28
      name RightLeg
      direction 0.000000 -1.000000 0.000000
      length 17.609563
      axis 0.0 0.0 0.0 xyz
      dof rx ry rz
   end
   begin
      id 29
      name RightFoot
      direction 0.000000 -0.258819 0.965926
      length 6.085393
      axis 15.0 0.0 0.0 xyz
      dof rx ry rz
   end
   begin
      id 30
      name RightToeBase
      direction 0.000000 0.000000 1.000000
      length 2.952750
      axis 0.0 0.0 0.0 xyz
      dof rx ry rz
   end
:hierarchy
   begin
      root Spine_dum LeftUpLeg_dum RightUpLeg_dum
      Spine_dum Spine
      LeftUpLeg_dum LeftUpLeg
      RightUpLeg_dum RightUpLeg
      Spine Spine_dum1 Spine_dum2 Spine_dum3
      Spine_dum1 Head
      Spine_dum2 LeftShoulder
      Spine_dum3 RightShoulder
      LeftShoulder LeftArm
      LeftArm LeftForeArm
      LeftForeArm LeftHand
      LeftHand LeftHand_dum1 LeftHand_dum2
      LeftHand_dum1 LeftHandThumb1
      RightShoulder RightArm
      RightArm RightForeArm
      RightForeArm RightHand
      RightHand RightHand_dum1 RightHand_dum2
      RightHand_dum1 RightHandThumb1
      LeftUpLeg LeftLeg
      LeftLeg LeftFoot
      LeftFoot LeftToeBase
      RightUpLeg RightLeg
      RightLeg RightFoot
      RightFoot RightToeBase
   end

# File created by Blade
# Date/Time:  Wed Jan 28 15:40:07 2015
# Frame Rate: 120.000 fps
#------------------------------------------------------
:FULLY-SPECIFIED
:DEGREES
346
root -8.321895 40.163751 -12.772240 -4.822012 -51.056407 39.325324
Spine 9.943720 4.355711 -24.298806
Head -8.365160 14.906135 -5.006843
LeftShoulder -11.501575 18.291545 8.968039
LeftArm 12.270240 18.837435 -65.765024
LeftForeArm -5.275753 -0.000000 13.178972
LeftHand 6.063172 0.000000 1.633522
LeftHandThumb1 -26.253704 0.000000 33.147579
RightShoulder -2.986346 10.087946 -22.005694
RightArm 9.241971 17.583423 66.447755
RightForeArm -2.026171 0.000000 71.607787
RightHand -8.470016 -0.000000 -45.894340
RightHandThumb1 -24.326973 -0.000000 -32.862282
LeftUpLeg -23.122020 -3.857219 14.174758
LeftLeg 120.287942 -0.000000 -0.000000
LeftFoot 10.616841 6.374381 -13.572303
LeftToeBase 12.784586 -0.000000 -0.000000
RightUpLeg -31.753129 -3.404200 -13.189767
RightLeg 19.131085 -0.000000 -0.000000
RightFoot -22.955994 -18.153350 12.779928
RightToeBase 11.587524 -0.000000 -0.000000
347
root -8.369594 40.189012 -12.803419 -5.126184 -51.055153 39.798644
Spine 9.677793 4.717686 -25.128142
Head -8.301525 14.216141 -4.584065
LeftShoulder -11.429465 18.094282 9.020150
LeftArm 11.801254 18.206516 -65.588173
LeftForeArm -5.452295 -0.000000 12.859394
LeftHand 6.492446 -0.000000 1.836871
LeftHandThumb1 -26.253704 0.000000 33.147579
RightShoulder -2.924874 9.842367 -21.975659
RightArm 8.911574 17.456251 66.766541
RightForeArm -1.853300 -0.000000 71.306012
RightHand -7.763228 -0.000000 -46.499753
RightHandThumb1 -24.326973 -0.000000 -32.862282
LeftUpLeg -23.194030 -3.677678 14.412710
LeftLeg 120.885735 -0.000000 -0.000000
LeftFoot 11.712784 6.930142 -13.546906
LeftToeBase 13.077468 -0.000000 -0.000000
RightUpLeg -31.735223 -3.505750 -13.379141
RightLeg 18.977927 -0.000000 -0.000000
RightFoot -22.898547 -17.925008 12.864969
RightToeBase 11.789600 -0.000000 -0.000000
348
root -8.414070 40.213024 -12.832882 -5.435380 -51.044144 40.220141
Spine 9.498163 5.075478 -25.881301
Head -8.279243 13.522817 -4.166013
LeftShoulder -11.480176 18.276292 8.956825
LeftArm 11.866018 17.516691 -65.253935
LeftForeArm -5.465562 -0.000000 12.460488
LeftHand 6.923812 -0.000000 1.745443
LeftHandThumb1 -26.253704 0.000000 33.147579
RightShoulder -2.849017 9.932531 -21.983655
RightArm 8.300498 17.298792 66.985154
RightForeArm -1.936108 -0.000000 71.030082
RightHand -7.506210 0.000000 -46.670281
RightHandThumb1 -24.326973 -0.000000 -32.862282
LeftUpLeg -23.284124 -3.625390 14.706423
LeftLeg 121.614149 -0.000000 -0.000000
LeftFoot 12.739245 6.866770 -14.036949
LeftToeBase 13.413224 -0.000000 -0.000000
RightUpLeg -31.664665 -3.588794 -13.556558
RightLeg 18.809300 -0.000000 -0.000000
RightFoot -22.849801 -17.710422 12.949577
RightToeBase 12.087865 -0.000000 -0.000000
349
root -8.458980 40.236226 -12.860910 -5.736425 -51.045956 40.616145
Spine 9.305565 5.451706 -26.587107
Head -8.183528 12.814495 -3.792978
LeftShoulder -11.435114 18.314594 8.925526
LeftArm 11.721480 16.953498 -64.963828
LeftForeArm -5.620113 -0.000000 12.113292
LeftHand 7.400712 -0.000000 1.622614
LeftHandThumb1 -26.253704 0.000000 33.147579
RightShoulder -2.737123 9.667581 -21.941439
RightArm 8.090792 17.441869 67.255668
RightForeArm -1.583117 -0.000000 70.807159
RightHand -8.174018 -0.000000 -47.239098
RightHandThumb1 -24.326973 -0.000000 -32.862282
LeftUpLeg -23.340554 -3.498329 14.985624
LeftLeg 122.364685 -0.000000 -0.000000
LeftFoot 13.686618 6.650687 -14.077964
LeftToeBase 13.513521 -0.000000 -0.000000
RightUpLeg -31.561374 -3.637903 -13.719185
RightLeg 18.582391 -0.000000 -0.000000
RightFoot -22.929357 -17.524483 13.305471
RightToeBase 12.593412 -0.000000 -0.000000
350
root -8.500927 40.257974 -12.885563 -6.111064 -51.044997 41.090373
Spine 9.151126 5.826068 -27.359021
Head -8.170531 12.092226 -3.349984
LeftShoulder -11.396082 18.244924 8.992967
LeftArm 11.472975 16.468771 -64.767845
LeftForeArm -5.820496 -0.000000 11.790003
LeftHand 8.082250 -0.000000 1.202048
LeftHandThumb1 -26.253704 0.000000 33.147579
RightShoulder -2.691224 9.516158 -21.886546
RightArm 7.819342 17.511484 67.536994
RightForeArm -1.553967 0.000000 70.592924
RightHand -8.413836 -0.000000 -47.429649
RightHandThumb1 -24.326973 -0.000000 -32.862282
LeftUpLeg -23.375482 -3.368821 15.187696
LeftLeg 123.085100 -0.000000 -0.000000
LeftFoot 14.680589 6.504585 -14.344681
LeftToeBase 12.886611 -0.000000 -0.000000
RightUpLeg -31.498651 -3.683363 -13.934513
RightLeg 18.473249 -0.000000 -0.000000
RightFoot -22.945828 -17.325746 13.466875
RightToeBase 12.799880 -0.000000 -0.000000
351
root -8.540626 40.278990 -12.910089 -6.441435 -51.042613 41.532691
Spine 8.960549 6.177242 -28.085846
Head -8.084322 11.365901 -2.916475
LeftShoulder -11.336295 18.315196 9.059579
LeftArm 11.302171 15.936984 -64.608915
LeftForeArm -5.982725 -0.000000 11.532438
LeftHand 8.625775 0.000000 0.870124
LeftHandThumb1 -26.253704 0.000000 33.147579
RightShoulder -2.611914 9.415479 -21.810823
RightArm 7.449360 17.510467 67.746090
RightForeArm -1.587683 0.000000 70.406796
RightHand -7.834132 -0.000000 -47.780188
RightHandThumb1 -24.326973 -0.000000 -32.862282
LeftUpLeg -23.395149 -3.236212 15.414446
LeftLeg 123.800119 -0.000000 -0.000000
LeftFoot 15.279759 6.264256 -14.266131
LeftToeBase 13.302068 -0.000000 -0.000000
RightUpLeg -31.445444 -3.687312 -14.152141
RightLeg 18.354101 -0.000000 -0.000000
RightFoot -22.887276 -17.155122 13.490112
RightToeBase 12.774454 -0.000000 -0.000000
352
root -8.579161 40.298643 -12.932227 -6.796662 -51.043821 41.973779
Spine 8.822034 6.525797 -28.778339
Head -8.064413 10.616013 -2.510830
LeftShoulder -11.318233 18.275386 9.116827
LeftArm 11.069115 15.501002 -64.461893
LeftForeArm -6.237646 -0.000000 11.338432
LeftHand 8.969975 -0.000000 0.431268
LeftHandThumb1 -26.253704 0.000000 33.147579
RightShoulder -2.593059 9.290436 -21.772280
RightArm 7.275259 17.463441 68.000283
RightForeArm -1.656003 -0.000000 70.092197
RightHand -7.460974 -0.000000 -47.942475
RightHandThumb1 -24.326973 -0.000000 -32.862282
LeftUpLeg -23.406277 -3.088713 15.614413
LeftLeg 124.492399 -0.000000 -0.000000
LeftFoot 15.897944 6.106806 -14.322751
LeftToeBase 13.262383 -0.000000 -0.000000
RightUpLeg -31.371708 -3.679102 -14.382140
RightLeg 18.237479 -0.000000 -0.000000
RightFoot -22.979426 -17.006599 13.761947
RightToeBase 13.408010 -0.000000 -0.000000
353
root -8.614725 40.318424 -12.952468 -7.139659 -51.032761 42.435616
Spine 8.657147 6.817017 -29.464987
Head -8.017039 9.914993 -2.139436
LeftShoulder -11.352077 18.295853 9.131766
LeftArm 10.914831 15.078964 -64.280587
LeftForeArm -6.617024 -0.000000 11.111011
LeftHand 9.447297 0.000000 -0.225372
LeftHandThumb1 -26.253704 0.000000 33.147579
RightShoulder -2.580706 9.198814 -21.712484
RightArm 7.102184 17.465732 68.256552
RightForeArm -1.251715 0.000000 69.928451
RightHand -7.348287 -0.000000 -48.337070
RightHandThumb1 -24.326973 -0.000000 -32.862282
LeftUpLeg -23.423082 -2.984477 15.788511
LeftLeg 125.166003 -0.000000 -0.000000
LeftFoot 16.358396 5.957439 -14.594149
LeftToeBase 13.505254 -0.000000 -0.000000
RightUpLeg -31.334403 -3.717169 -14.612919
RightLeg 18.135384 -0.000000 -0.000000
RightFoot -22.960973 -16.849273 13.830799
RightToeBase 13.633688 -0.000000 -0.000000
354
root -8.649376 40.336730 -12.968795 -7.440789 -51.040307 42.879694
Spine 8.445667 7.071900 -30.098684
Head -7.964316 9.186152 -1.858508
LeftShoulder -11.381112 18.299227 9.114537
LeftArm 10.651846 14.656971 -64.133680
LeftForeArm -6.848904 -0.000000 11.049553
LeftHand 9.602075 -0.000000 -0.949986
LeftHandThumb1 -26.253704 0.000000 33.147579
RightShoulder -2.537803 9.239292 -21.683249
RightArm 6.774010 17.552428 68.493561
RightForeArm -1.277801 -0.000000 69.757353
RightHand -7.349784 -0.000000 -48.337313
RightHandThumb1 -24.326973 -0.000000 -32.862282
LeftUpLeg -23.406426 -2.780834 15.926155
LeftLeg 125.773622 -0.000000 -0.000000
LeftFoot 16.735415 5.916534 -14.433647
LeftToeBase 13.326923 -0.000000 -0.000000
RightUpLeg -31.330154 -3.724537 -14.842507
RightLeg 18.044751 -0.000000 -0.000000
RightFoot -22.937245 -16.682274 13.951450
RightToeBase 13.549884 -0.000000 -0.000000
